<svg width="125" height="35" viewBox="0 0 125 35" fill="none" xmlns="http://www.w3.org/2000/svg">
<path d="M35.3335 6.13431C35.3335 6.13431 27.5701 -0.580972 17.2189 5.23226C16.6217 5.53294 12.6404 7.13659 10.3512 13.8519H5.97186C5.97186 13.8519 5.57374 14.4532 5.97186 14.8542H10.7494C11.0479 15.2551 11.0479 15.8564 10.7494 16.2573H2.98593C2.58781 16.4578 2.48828 16.9589 2.78687 17.2596C2.8864 17.3599 2.8864 17.4601 2.98593 17.4601H9.75404C9.75404 17.4601 10.6498 18.0615 9.65451 18.6628H4.87702C4.87702 18.6628 4.08077 19.164 4.67796 19.7653C5.67327 19.8656 6.66858 19.8656 7.56436 19.7653C6.96717 21.369 5.7728 22.6719 4.1803 23.4738C5.27514 23.9749 11.0479 24.2756 11.0479 24.2756L7.46483 28.0843C7.46483 28.0843 16.4226 36.6036 26.1767 33.9977C29.9588 33.4966 35.8312 30.6902 36.6274 28.0843C38.5185 25.8792 41.5044 18.763 41.5044 18.763L44.8885 14.353C44.8885 14.353 45.8838 10.9453 43.0969 11.6469C41.9026 11.8473 40.7082 12.2482 39.6133 12.8496C39.6133 12.7494 38.618 7.63773 35.3335 6.13431Z" fill="#005773" fill-opacity="0.6"/>
<path d="M40.9073 11.4464C41.7035 11.2459 42.4997 10.9453 43.296 10.7448C43.6941 10.6446 44.1918 10.6446 44.5899 10.7448C45.6847 10.7448 46.5805 11.6469 46.5805 12.7494C46.5805 13.05 46.481 13.3507 46.3815 13.6514C45.8838 14.9544 45.1871 16.1571 44.3908 17.2596C42.7983 19.0637 41.5044 21.2687 40.8077 23.574C40.2105 25.5786 39.1157 27.3827 37.6227 28.7859C37.4237 28.9863 37.3241 29.1868 37.1251 29.287C36.8265 29.287 36.4284 29.287 36.1298 29.287C36.1298 28.9863 36.0302 28.4852 36.2293 28.2847C36.6274 27.6833 37.1251 27.2824 37.5232 26.6811C41.0068 22.271 41.7035 16.3576 39.4143 11.1457C37.1251 5.7334 32.9448 2.5261 27.0724 1.62405C24.2856 1.22313 21.4987 1.52382 18.9109 2.62633C18.4132 2.82678 17.9156 2.92701 17.7165 2.42587C17.5175 1.92473 17.9156 1.52382 18.4132 1.32336C27.0724 -2.28485 37.0255 1.72428 40.7082 10.4441L40.9073 11.4464ZM42.0021 17.9612C42.4002 17.5603 42.6988 17.1594 42.9974 16.6583C43.5946 15.7562 44.1918 14.8542 44.6894 13.8519C44.8885 13.451 44.988 12.7494 44.789 12.5489C44.3908 12.2482 43.8932 12.148 43.3955 12.2482C42.7983 12.3485 42.2012 12.5489 41.604 12.8496C41.4049 12.9498 41.3054 13.1503 41.3054 13.3507C41.604 14.8542 41.803 16.3576 42.0021 17.9612Z" fill="black"/>
<path d="M9.25639 28.1845C11.0479 29.9886 13.3372 31.3918 15.7259 32.2938C17.5175 32.8952 19.4086 33.0957 21.2001 33.5968C21.4987 33.697 21.7973 33.8975 21.9964 34.0979C22.1954 34.5991 21.7973 34.8998 21.1006 34.8998C18.5128 34.7995 16.0245 34.0979 13.7353 32.9954C11.7447 32.0934 9.85357 30.7904 8.26108 29.287C7.26577 28.2847 7.26577 28.0843 8.26108 27.1822C8.46014 26.9818 8.6592 26.7813 8.85826 26.6811C9.15685 26.6811 9.55498 26.6811 9.85357 26.6811C9.85357 26.9818 9.85357 27.3827 9.75404 27.6833C9.85357 27.7836 9.55498 27.984 9.25639 28.1845Z" fill="black"/>
<path d="M16.2236 10.7448C17.617 10.9453 18.9109 11.4464 20.0057 12.2482C20.2048 12.3485 20.2048 12.8496 20.3043 13.1503C20.0057 13.2505 19.6076 13.451 19.309 13.3507C18.4132 13.05 17.5175 12.4487 16.6217 12.2482C16.124 12.0478 15.5268 12.148 15.0292 12.4487C14.8301 12.6491 14.9297 13.5512 15.2282 13.9521C16.3231 15.656 17.5175 17.1594 18.6123 18.8633C18.9109 19.3644 19.6076 19.7653 19.0104 20.3667C18.4132 20.9681 17.9156 20.2665 17.617 19.7653C16.4226 18.2619 15.3278 16.6583 14.2329 15.0546C14.0339 14.6537 13.8348 14.2528 13.6358 13.8519C13.0386 12.0478 14.0339 10.7448 16.2236 10.7448Z" fill="black"/>
<path d="M5.07608 23.3735C5.7728 23.4738 6.56905 23.574 7.26577 23.574C8.6592 23.574 10.1522 23.4738 11.5456 23.3735C11.8442 23.3735 12.4414 23.4738 12.5409 23.6742C12.5409 24.0751 12.5409 24.3758 12.3418 24.7767C12.1428 25.1776 11.9437 25.4783 11.5456 25.6788C11.247 25.8792 10.7494 26.1799 10.5503 26.0797C10.3512 25.9795 10.1522 25.3781 10.0526 24.9772L5.47421 24.877C4.67796 24.877 4.08077 24.3758 3.88171 23.6742C3.68265 22.9726 3.98124 22.1708 4.67796 21.7699C5.07608 21.4692 5.47421 21.1685 5.87233 20.7676C6.66858 19.8656 6.76811 19.8656 8.26108 20.1662L5.07608 23.3735Z" fill="black"/>
<path d="M9.65451 13.5512H8.26108C8.85826 10.845 10.0526 8.33933 11.8442 6.23454C12.1428 5.83363 12.5409 5.43271 12.939 5.0318C13.3372 4.63089 13.7353 4.53066 14.0339 4.93157C14.1334 5.23226 14.1334 5.63317 13.9343 5.93385C11.9437 8.13887 10.4508 10.7448 9.65451 13.5512Z" fill="black"/>
<path d="M24.6837 35C24.3851 34.7995 23.987 34.4989 23.8874 34.1982C23.7879 33.697 24.186 33.4966 24.6837 33.3963C26.4753 32.9954 28.2668 32.5945 30.0584 32.2938C30.357 32.2938 30.6556 32.5945 30.9542 32.6948C30.7551 32.9954 30.6556 33.4966 30.4565 33.5968C28.9635 33.9977 27.4706 34.2984 26.0771 34.5991C25.679 34.6993 25.2809 34.6993 24.8828 34.7995L24.6837 35Z" fill="black"/>
<path d="M31.9495 18.9635C32.3476 18.9635 32.8452 18.9635 33.2434 18.9635C33.8406 18.9635 34.0396 19.3644 33.741 19.8656C33.4424 20.5672 32.7457 21.0683 31.9495 21.0683C31.1532 21.1685 30.4565 20.6674 30.0584 19.9658C29.6602 19.3644 29.9588 18.9635 30.556 18.9635C31.0537 18.9635 31.4518 18.9635 31.9495 18.9635Z" fill="black"/>
<path d="M28.0678 18.6628C27.4706 18.6628 26.9729 18.2619 26.9729 17.6605C26.9729 17.0592 27.371 16.6583 27.8687 16.558H27.9682C28.5654 16.558 28.9635 16.9589 29.0631 17.4601V17.5603C29.0631 18.1617 28.6649 18.5626 28.0678 18.6628Z" fill="black"/>
<path d="M36.5279 17.5603C36.5279 18.1617 36.0302 18.6628 35.433 18.6628C34.8359 18.5626 34.4377 18.0615 34.4377 17.4601C34.4377 16.9589 34.9354 16.558 35.433 16.4578C36.0302 16.4578 36.5279 16.9589 36.5279 17.5603Z" fill="black"/>
<path d="M32.1485 32.5945C31.9495 32.3941 31.8499 32.1936 31.7504 31.8929C31.6509 31.492 32.4471 30.8906 32.9448 30.9909C33.2434 31.0911 33.4424 31.2916 33.6415 31.5922C33.741 31.9932 32.9448 32.5945 32.1485 32.5945Z" fill="black"/>
<path d="M17.0198 3.62861C16.7212 3.92929 16.3231 4.12975 15.925 4.3302C15.7259 4.3302 15.4273 3.92929 15.2282 3.62861C15.5268 3.32792 15.8254 3.02724 16.2236 2.82678C16.4226 2.72656 16.7212 3.12747 17.0198 3.2277V3.62861Z" fill="black"/>
<path d="M48.5449 26.5007V9.0063H54.415C55.7722 9.0063 56.8863 9.23979 57.7572 9.70676C58.6281 10.168 59.2728 10.803 59.6912 11.6117C60.1097 12.4203 60.319 13.34 60.319 14.3708C60.319 15.4015 60.1097 16.3155 59.6912 17.1128C59.2728 17.9101 58.6309 18.5365 57.7657 18.9921C56.9004 19.442 55.7948 19.6669 54.4489 19.6669H49.6986V17.7535H54.381C55.3085 17.7535 56.055 17.6168 56.6205 17.3435C57.1917 17.0701 57.6045 16.6829 57.859 16.1817C58.1191 15.6749 58.2492 15.0712 58.2492 14.3708C58.2492 13.6703 58.1191 13.0581 57.859 12.5342C57.5988 12.0103 57.1832 11.606 56.612 11.3212C56.0408 11.0308 55.2859 10.8856 54.3471 10.8856H50.6486V26.5007H48.5449ZM56.7223 18.6419L60.9976 26.5007H58.5546L54.3471 18.6419H56.7223Z" fill="#005773" fill-opacity="0.6"/>
<path d="M68.876 26.774C67.6205 26.774 66.5375 26.495 65.6271 25.9369C64.7222 25.3731 64.0238 24.5872 63.5318 23.5792C63.0455 22.5656 62.8023 21.3867 62.8023 20.0428C62.8023 18.6988 63.0455 17.5143 63.5318 16.4892C64.0238 15.4585 64.7081 14.6555 65.5846 14.0803C66.4669 13.4995 67.4961 13.209 68.6724 13.209C69.351 13.209 70.0211 13.3229 70.6828 13.5507C71.3444 13.7785 71.9467 14.1487 72.4896 14.6612C73.0325 15.168 73.4651 15.84 73.7875 16.6772C74.1098 17.5143 74.271 18.5451 74.271 19.7694V20.6236H64.2274V18.881H72.2351C72.2351 18.1407 72.0881 17.4801 71.794 16.8993C71.5056 16.3184 71.0928 15.86 70.5555 15.524C70.024 15.188 69.3962 15.02 68.6724 15.02C67.875 15.02 67.1851 15.2193 66.6026 15.6179C66.0257 16.0109 65.5818 16.5234 65.2708 17.1555C64.9597 17.7876 64.8042 18.4653 64.8042 19.1886V20.3503C64.8042 21.3412 64.9739 22.1812 65.3132 22.8702C65.6582 23.5536 66.136 24.0747 66.7468 24.4335C67.3575 24.7865 68.0673 24.9631 68.876 24.9631C69.4019 24.9631 69.8769 24.889 70.3011 24.741C70.7309 24.5872 71.1013 24.3594 71.4123 24.0576C71.7233 23.7501 71.9637 23.3685 72.1333 22.9129L74.0674 23.4596C73.8638 24.1202 73.5217 24.7011 73.041 25.2022C72.5603 25.6977 71.9665 26.0849 71.2596 26.364C70.5527 26.6373 69.7582 26.774 68.876 26.774Z" fill="#005773" fill-opacity="0.6"/>
<path d="M82.6095 26.774C81.388 26.774 80.3362 26.4836 79.454 25.9027C78.5717 25.3218 77.8931 24.5217 77.4181 23.5024C76.9431 22.483 76.7055 21.3184 76.7055 20.0086C76.7055 18.676 76.9487 17.5001 77.4351 16.4807C77.927 15.4556 78.6113 14.6555 79.4879 14.0803C80.3701 13.4995 81.3993 13.209 82.5756 13.209C83.4918 13.209 84.3174 13.3799 85.0526 13.7216C85.7878 14.0633 86.39 14.5416 86.8594 15.1567C87.3288 15.7717 87.62 16.4892 87.7331 17.3093H85.7312C85.5785 16.7113 85.2392 16.1817 84.7133 15.7204C84.193 15.2535 83.4918 15.02 82.6095 15.02C81.8291 15.02 81.1448 15.225 80.5567 15.635C79.9742 16.0394 79.519 16.6117 79.191 17.352C78.8686 18.0866 78.7075 18.9494 78.7075 19.9403C78.7075 20.9539 78.8658 21.8366 79.1825 22.5883C79.5048 23.3401 79.9573 23.9238 80.5397 24.3395C81.1279 24.7552 81.8178 24.9631 82.6095 24.9631C83.1298 24.9631 83.602 24.872 84.0262 24.6897C84.4503 24.5075 84.8094 24.2455 85.1035 23.9038C85.3975 23.5622 85.6068 23.1521 85.7312 22.6738H87.7331C87.62 23.4483 87.3401 24.1459 86.8933 24.7666C86.4522 25.3816 85.8669 25.8714 85.1374 26.2358C84.4135 26.5946 83.5709 26.774 82.6095 26.774Z" fill="#005773" fill-opacity="0.6"/>
<path d="M90.6597 26.5007V13.3799H92.5938V15.3617H92.7295C92.967 14.7125 93.3968 14.1857 94.0188 13.7814C94.6409 13.377 95.3422 13.1749 96.1226 13.1749C96.2696 13.1749 96.4534 13.1777 96.674 13.1834C96.8945 13.1891 97.0613 13.1977 97.1744 13.209V15.2592C97.1066 15.2421 96.9511 15.2165 96.7079 15.1823C96.4704 15.1424 96.2187 15.1225 95.9529 15.1225C95.3195 15.1225 94.754 15.2563 94.2564 15.524C93.7644 15.7859 93.3742 16.1504 93.0857 16.6174C92.803 17.0786 92.6616 17.6054 92.6616 18.1977V26.5007H90.6597Z" fill="#005773" fill-opacity="0.6"/>
<path d="M107.759 21.1362V13.3799H109.761V26.5007H107.759V24.2797H107.623C107.318 24.946 106.843 25.5126 106.198 25.9796C105.553 26.4409 104.739 26.6715 103.755 26.6715C102.941 26.6715 102.217 26.4921 101.583 26.1333C100.95 25.7689 100.452 25.2222 100.09 24.4932C99.7285 23.7586 99.5475 22.8332 99.5475 21.717V13.3799H101.549V21.5804C101.549 22.5371 101.815 23.3002 102.347 23.8697C102.884 24.4391 103.568 24.7239 104.4 24.7239C104.897 24.7239 105.403 24.5958 105.918 24.3395C106.438 24.0832 106.874 23.6903 107.224 23.1607C107.581 22.6311 107.759 21.9562 107.759 21.1362Z" fill="#005773" fill-opacity="0.6"/>
<path d="M113.427 26.5007V13.3799H115.429V26.5007H113.427ZM114.445 11.1931C114.055 11.1931 113.719 11.0593 113.436 10.7916C113.159 10.524 113.02 10.2022 113.02 9.82635C113.02 9.45049 113.159 9.12874 113.436 8.86108C113.719 8.59343 114.055 8.4596 114.445 8.4596C114.836 8.4596 115.169 8.59343 115.446 8.86108C115.729 9.12874 115.87 9.45049 115.87 9.82635C115.87 10.2022 115.729 10.524 115.446 10.7916C115.169 11.0593 114.836 11.1931 114.445 11.1931Z" fill="#005773" fill-opacity="0.6"/>
<path d="M124.762 13.3799V15.0883H118.01V13.3799H124.762ZM119.978 10.2364H121.98V22.7421C121.98 23.3116 122.062 23.7387 122.226 24.0234C122.396 24.3025 122.611 24.4904 122.871 24.5872C123.137 24.6783 123.417 24.7239 123.711 24.7239C123.931 24.7239 124.112 24.7125 124.254 24.6897C124.395 24.6612 124.508 24.6385 124.593 24.6214L125 26.4323C124.864 26.4836 124.675 26.5348 124.432 26.5861C124.188 26.643 123.88 26.6715 123.507 26.6715C122.942 26.6715 122.387 26.5491 121.844 26.3042C121.307 26.0593 120.86 25.6863 120.504 25.1852C120.154 24.684 119.978 24.0519 119.978 23.2888V10.2364Z" fill="#005773" fill-opacity="0.6"/>
<path d="M1.99062 19.3644C2.26547 19.3644 2.48828 19.3195 2.48828 19.2642C2.48828 19.2088 2.26547 19.164 1.99062 19.164C1.71577 19.164 1.49297 19.2088 1.49297 19.2642C1.49297 19.3195 1.71577 19.3644 1.99062 19.3644Z" fill="#005773" fill-opacity="0.6"/>
<path d="M0.696717 16.8587C1.0815 16.8587 1.39343 16.8138 1.39343 16.7585C1.39343 16.7031 1.0815 16.6583 0.696717 16.6583C0.311931 16.6583 0 16.7031 0 16.7585C0 16.8138 0.311931 16.8587 0.696717 16.8587Z" fill="#005773" fill-opacity="0.6"/>
<path d="M3.88171 14.4532C4.15656 14.4532 4.37937 14.4084 4.37937 14.353C4.37937 14.2977 4.15656 14.2528 3.88171 14.2528C3.60686 14.2528 3.38406 14.2977 3.38406 14.353C3.38406 14.4084 3.60686 14.4532 3.88171 14.4532Z" fill="#005773" fill-opacity="0.6"/>
<path d="M31.8499 21.0683C32.5096 21.0683 33.0443 20.7542 33.0443 20.3667C33.0443 19.9792 32.5096 19.6651 31.8499 19.6651C31.1903 19.6651 30.6556 19.9792 30.6556 20.3667C30.6556 20.7542 31.1903 21.0683 31.8499 21.0683Z" fill="#EFBA6B"/>
</svg>
