<svg width="48" height="35" viewBox="0 0 48 35" fill="none" xmlns="http://www.w3.org/2000/svg">
<g clip-path="url(#clip0_187_3438)">
<path d="M36.3607 6.27096C36.3607 6.27096 28.4554 -0.444386 17.8913 5.3689C17.2824 5.66959 13.2232 7.27326 10.8892 13.9886H6.42408C6.42408 13.9886 6.01816 14.59 6.42408 14.9909H11.3053C11.4539 15.1954 11.5339 15.4408 11.5339 15.6925C11.5339 15.9442 11.4539 16.1896 11.3053 16.3941H3.37968C3.28627 16.434 3.20404 16.4956 3.14003 16.5737C3.07603 16.6519 3.03217 16.7442 3.01222 16.8427C2.99226 16.9413 2.9968 17.0431 3.02546 17.1396C3.05411 17.236 3.10601 17.3241 3.17672 17.3964C3.2782 17.4966 3.2782 17.5969 3.37968 17.5969H10.2905C10.2905 17.5969 11.1936 18.1982 10.1788 18.7996H5.31795C5.31795 18.7996 4.49596 19.3007 5.11499 19.9021C6.09332 20.0027 7.07958 20.0027 8.05791 19.9021C7.42672 21.5264 6.19304 22.8524 4.60759 23.6106C5.72387 24.1117 11.6097 24.4124 11.6097 24.4124L7.94628 28.2011C7.94628 28.2011 17.0795 36.7206 27.0245 34.1146C30.8807 33.6135 36.8681 30.807 37.6799 28.2011C39.6182 25.9961 42.6626 18.8798 42.6626 18.8798L46.1129 14.4697C46.1129 14.4697 47.1277 11.0619 44.2862 11.7635C43.0429 11.9668 41.8425 12.3733 40.7344 12.9663C40.7243 12.8861 39.7095 7.7744 36.3607 6.27096Z" fill="#005773" fill-opacity="0.6"/>
<path d="M42.2157 11.4462C43.0275 11.2457 43.8393 10.945 44.6512 10.7446C45.085 10.6442 45.5365 10.6442 45.9704 10.7446C46.5087 10.7446 47.0249 10.9558 47.4056 11.3317C47.7862 11.7076 48 12.2175 48 12.7491C47.986 13.0592 47.9173 13.3645 47.797 13.6512C47.2828 14.9363 46.6005 16.1493 45.7674 17.2594C44.1099 19.0844 42.8646 21.2369 42.1142 23.5739C41.5219 25.5662 40.4007 27.3658 38.8668 28.7858C38.6639 28.9863 38.5624 29.1867 38.3594 29.2869H37.3446C37.3446 28.9863 37.2533 28.4851 37.4461 28.2846C37.852 27.6833 38.3594 27.2824 38.7653 26.681C40.5 24.516 41.5976 21.921 41.9377 19.1806C42.2778 16.4402 41.8473 13.6602 40.6935 11.1455C39.6647 8.58223 37.9509 6.34278 35.7349 4.6659C33.5188 2.98903 30.8835 1.93759 28.1099 1.62371C25.2956 1.19896 22.4171 1.54566 19.7886 2.626C19.2812 2.82646 18.7738 2.92669 18.5708 2.42554C18.3679 1.9244 18.7738 1.52348 19.2812 1.32302C23.5234 -0.427599 28.2942 -0.451262 32.554 1.25719C36.8138 2.96564 40.2173 6.26773 42.0228 10.4439L42.2157 11.4462ZM43.3421 17.9611C43.7354 17.5714 44.0764 17.1335 44.3569 16.6581C44.9873 15.7569 45.5634 14.8198 46.082 13.8517C46.285 13.4507 46.3865 12.7491 46.1734 12.5487C45.9717 12.4019 45.7407 12.2992 45.4958 12.2473C45.2508 12.1955 44.9975 12.1957 44.7526 12.248C44.1168 12.3571 43.501 12.5598 42.926 12.8494C42.8328 12.8963 42.7548 12.9682 42.701 13.0568C42.6472 13.1454 42.6197 13.2472 42.6216 13.3505C42.926 14.8539 43.129 16.3574 43.3421 17.9611Z" fill="black"/>
<path d="M9.95524 28.1844C11.8331 29.997 14.0774 31.3974 16.5413 32.2938C18.3679 32.8952 20.296 33.0956 22.1227 33.5968C22.4271 33.7033 22.7042 33.8744 22.9345 34.0979C23.1375 34.5991 22.7316 34.8998 22.0212 34.8998C19.4127 34.7779 16.857 34.1298 14.5117 32.9954C12.4594 32.0673 10.5742 30.8147 8.93029 29.2869C7.91549 28.2846 7.91549 28.0842 8.93029 27.1821C9.10707 26.9863 9.31226 26.8174 9.53917 26.681H10.554C10.5706 27.0182 10.5364 27.356 10.4525 27.6833C10.554 27.7835 10.2597 27.9839 9.95524 28.1844Z" fill="black"/>
<path d="M17.0486 10.7446C18.4392 10.9266 19.7633 11.4429 20.9049 12.248C21.1078 12.3482 21.1078 12.8494 21.2093 13.1501C20.9049 13.2503 20.499 13.4508 20.1945 13.3505C19.2812 13.0498 18.3679 12.4485 17.4546 12.248C17.1863 12.1575 16.9006 12.1285 16.6193 12.1632C16.338 12.1979 16.0684 12.2955 15.8309 12.4485C15.7441 12.6974 15.7172 12.9629 15.7525 13.2239C15.7877 13.4848 15.884 13.7341 16.0338 13.9519C17.1501 15.6558 18.3679 17.1592 19.4842 18.8631C19.7886 19.3643 20.499 19.7652 19.8901 20.3666C19.2812 20.9679 18.7738 20.2663 18.4694 19.7652C17.2516 18.2617 16.1353 16.6581 15.019 15.0544L14.4102 13.8517C13.8114 12.0275 14.8262 10.7446 17.0486 10.7446Z" fill="black"/>
<path d="M5.68286 23.3734C6.42497 23.4903 7.17427 23.5573 7.92557 23.5739C9.33614 23.5739 10.8685 23.4737 12.2892 23.3734C12.5936 23.3734 13.1924 23.4737 13.304 23.6741C13.336 24.0529 13.266 24.4332 13.101 24.7766C12.9462 25.1623 12.6588 25.4816 12.2892 25.6787C11.9848 25.8792 11.4774 26.1798 11.2744 26.0796C11.0714 25.9794 10.8685 25.378 10.767 24.9771L6.08878 24.8769C5.72177 24.8861 5.36243 24.7722 5.06939 24.5537C4.77635 24.3353 4.56691 24.0252 4.47525 23.6741C4.37343 23.3128 4.39822 22.9281 4.54559 22.5824C4.69295 22.2367 4.95425 21.9503 5.28709 21.7698C5.71744 21.4657 6.12446 21.1307 6.50485 20.7675C7.31669 19.8654 7.41817 19.8654 8.94037 20.1661L5.68286 23.3734Z" fill="black"/>
<path d="M10.351 13.551H8.94043C9.52958 10.8541 10.7806 8.34156 12.5836 6.23425C12.9269 5.80195 13.2999 5.39339 13.6998 5.01146C14.1159 4.61054 14.5218 4.51031 14.8263 4.91123C14.8858 5.07573 14.9066 5.25143 14.8873 5.42507C14.868 5.59871 14.8089 5.76573 14.7146 5.91352C12.6849 8.09414 11.1917 10.7077 10.351 13.551Z" fill="black"/>
<path d="M25.6744 35C25.3313 34.8155 25.0494 34.5371 24.8626 34.1982C24.7611 33.697 25.167 33.4966 25.6744 33.3963C27.5011 32.9954 29.3277 32.5945 31.1543 32.2938C31.4588 32.2938 31.7632 32.5945 32.0677 32.6947C31.8647 32.9954 31.7632 33.4966 31.5603 33.5968C30.0381 33.9977 28.5159 34.2984 27.0951 34.5991C26.6892 34.6993 26.2833 34.6993 25.8774 34.7996L25.6744 35Z" fill="black"/>
<path d="M33.0824 18.9633H34.4017C35.0105 18.9633 35.2135 19.3642 34.9091 19.8654C34.7467 20.2171 34.4877 20.5168 34.1614 20.7303C33.8351 20.9438 33.4546 21.0625 33.0634 21.073C32.6721 21.0834 32.2857 20.9851 31.9482 20.7894C31.6107 20.5936 31.3357 20.3082 31.1543 19.9656C30.7484 19.3642 31.0528 18.9633 31.6617 18.9633H33.0824Z" fill="black"/>
<path d="M29.1349 18.6626C28.9933 18.6767 28.8504 18.6612 28.7153 18.6171C28.5802 18.5731 28.456 18.5015 28.3507 18.407C28.2455 18.3125 28.1615 18.1972 28.1043 18.0685C28.0471 17.9399 28.0179 17.8008 28.0186 17.6603C28.0096 17.4 28.096 17.1452 28.2619 16.9427C28.4278 16.7401 28.6621 16.6035 28.9217 16.5578H29.0334C29.2979 16.5514 29.556 16.6389 29.7608 16.8044C29.9657 16.97 30.1036 17.2025 30.1497 17.4599V17.5601C30.1508 17.836 30.0472 18.1022 29.8594 18.3063C29.6715 18.5104 29.413 18.6376 29.1349 18.6626Z" fill="black"/>
<path d="M37.7606 17.5602C37.758 17.8518 37.6395 18.1307 37.4307 18.3369C37.222 18.5431 36.9396 18.6601 36.6443 18.6627C36.3568 18.6168 36.0957 18.4698 35.9092 18.2488C35.7227 18.0277 35.6234 17.7476 35.6295 17.4599C35.6648 17.2064 35.783 16.9712 35.9663 16.7902C36.1495 16.6092 36.3876 16.4924 36.6443 16.4576C36.9396 16.4603 37.222 16.5773 37.4307 16.7835C37.6395 16.9897 37.758 17.2686 37.7606 17.5602Z" fill="black"/>
<path d="M33.2854 32.5945C33.0921 32.3984 32.9524 32.157 32.8795 31.8929C32.778 31.492 33.5899 30.8906 34.0973 30.9908C34.3986 31.102 34.6503 31.3151 34.8076 31.5922C34.9193 31.9931 34.0973 32.5945 33.2854 32.5945Z" fill="black"/>
<path d="M17.8706 3.62827C17.5347 3.91912 17.1546 4.15589 16.7442 4.32987C16.5412 4.32987 16.2368 3.92896 16.0439 3.62827C16.3348 3.30719 16.6777 3.0362 17.0587 2.82644C17.2617 2.72621 17.5661 3.12712 17.8807 3.22735L17.8706 3.62827Z" fill="black"/>
<path d="M2.53694 19.3643C2.81717 19.3643 3.04434 19.3194 3.04434 19.264C3.04434 19.2087 2.81717 19.1638 2.53694 19.1638C2.25671 19.1638 2.02954 19.2087 2.02954 19.264C2.02954 19.3194 2.25671 19.3643 2.53694 19.3643Z" fill="#65C9D7" stroke="#005773" stroke-opacity="0.6" stroke-width="0.85" stroke-miterlimit="10" stroke-linecap="round"/>
<path d="M1.21781 16.8585C1.61013 16.8585 1.92817 16.8137 1.92817 16.7583C1.92817 16.703 1.61013 16.6581 1.21781 16.6581C0.825485 16.6581 0.507446 16.703 0.507446 16.7583C0.507446 16.8137 0.825485 16.8585 1.21781 16.8585Z" fill="#65C9D7" stroke="#005773" stroke-opacity="0.6" stroke-width="1.01" stroke-miterlimit="10" stroke-linecap="round"/>
<path d="M4.47529 14.453C4.75552 14.453 4.98269 14.4081 4.98269 14.3528C4.98269 14.2974 4.75552 14.2526 4.47529 14.2526C4.19507 14.2526 3.9679 14.2974 3.9679 14.3528C3.9679 14.4081 4.19507 14.453 4.47529 14.453Z" fill="#65C9D7" stroke="#005773" stroke-opacity="0.6" stroke-width="0.81" stroke-miterlimit="10" stroke-linecap="round"/>
<path d="M32.9809 21.0682C33.6535 21.0682 34.1987 20.7541 34.1987 20.3666C34.1987 19.9791 33.6535 19.665 32.9809 19.665C32.3084 19.665 31.7632 19.9791 31.7632 20.3666C31.7632 20.7541 32.3084 21.0682 32.9809 21.0682Z" fill="#EFBA6B"/>
</g>
<defs>
<clipPath id="clip0_187_3438">
<rect width="48" height="35" fill="white"/>
</clipPath>
</defs>
</svg>
